{
    "asset" : {
        "generator" : "Khronos glTF Blender I/O v1.8.19",
        "version" : "2.0"
    },
    "scene" : 0,
    "scenes" : [
        {
            "name" : "Scene",
            "nodes" : [
                0,
                1,
                2
            ]
        }
    ],
    "nodes" : [
        {
            "mesh" : 0,
            "name" : "Plane.009",
            "rotation" : [
                -0.06087525561451912,
                0,
                0,
                0.9981454014778137
            ],
            "scale" : [
                512.8359985351562,
                512.8360595703125,
                512.8360595703125
            ],
            "translation" : [
                -0.30233654379844666,
                -7.701720237731934,
                5.915632247924805
            ]
        },
        {
            "mesh" : 1,
            "name" : "Icosphere.003",
            "rotation" : [
                0.015202458016574383,
                0.3143300414085388,
                0.9490178227424622,
                -0.018184635788202286
            ],
            "scale" : [
                1.014497995376587,
                1.0144978761672974,
                1.014497995376587
            ],
            "translation" : [
                0.0023806504905223846,
                -0.08726783841848373,
                0.006988823413848877
            ]
        },
        {
            "mesh" : 2,
            "name" : "Icosphere.002",
            "rotation" : [
                0.015202458016574383,
                0.3143300414085388,
                0.9490178227424622,
                -0.018184635788202286
            ],
            "scale" : [
                1.0708386898040771,
                1.070838451385498,
                1.070838451385498
            ],
            "translation" : [
                0.0023806504905223846,
                -0.08726783841848373,
                0.006988823413848877
            ]
        }
    ],
    "materials" : [
        {
            "doubleSided" : true,
            "name" : "Absolute Black",
            "pbrMetallicRoughness" : {
                "baseColorFactor" : [
                    0,
                    0,
                    0,
                    1
                ],
                "roughnessFactor" : 0
            }
        },
        {
            "doubleSided" : true,
            "name" : "Material.001",
            "pbrMetallicRoughness" : {
                "baseColorFactor" : [
                    0.03946846351027489,
                    0.03980756551027298,
                    0.04322076588869095,
                    1
                ],
                "metallicFactor" : 0,
                "roughnessFactor" : 0.36125683784484863
            }
        },
        {
            "doubleSided" : true,
            "name" : "Material.011",
            "pbrMetallicRoughness" : {
                "baseColorFactor" : [
                    0.025268446654081345,
                    0.2044038325548172,
                    0.6350878477096558,
                    1
                ],
                "metallicFactor" : 0,
                "roughnessFactor" : 0.36125683784484863
            }
        }
    ],
    "meshes" : [
        {
            "name" : "Plane.009",
            "primitives" : [
                {
                    "attributes" : {
                        "POSITION" : 0,
                        "NORMAL" : 1,
                        "TEXCOORD_0" : 2
                    },
                    "indices" : 3,
                    "material" : 0
                }
            ]
        },
        {
            "name" : "Icosphere.003",
            "primitives" : [
                {
                    "attributes" : {
                        "POSITION" : 4,
                        "NORMAL" : 5,
                        "TEXCOORD_0" : 6
                    },
                    "indices" : 7,
                    "material" : 1
                }
            ]
        },
        {
            "name" : "Icosphere.004",
            "primitives" : [
                {
                    "attributes" : {
                        "POSITION" : 8,
                        "NORMAL" : 9,
                        "TEXCOORD_0" : 10
                    },
                    "indices" : 11,
                    "material" : 2
                }
            ]
        }
    ],
    "accessors" : [
        {
            "bufferView" : 0,
            "componentType" : 5126,
            "count" : 4,
            "max" : [
                1,
                0,
                1
            ],
            "min" : [
                -1,
                0,
                -1
            ],
            "type" : "VEC3"
        },
        {
            "bufferView" : 1,
            "componentType" : 5126,
            "count" : 4,
            "type" : "VEC3"
        },
        {
            "bufferView" : 2,
            "componentType" : 5126,
            "count" : 4,
            "type" : "VEC2"
        },
        {
            "bufferView" : 3,
            "componentType" : 5123,
            "count" : 6,
            "type" : "SCALAR"
        },
        {
            "bufferView" : 4,
            "componentType" : 5126,
            "count" : 639,
            "max" : [
                0.9113432765007019,
                0.9386453032493591,
                0.9003617763519287
            ],
            "min" : [
                -0.9113432765007019,
                -0.9386453032493591,
                -0.9003618359565735
            ],
            "type" : "VEC3"
        },
        {
            "bufferView" : 5,
            "componentType" : 5126,
            "count" : 639,
            "type" : "VEC3"
        },
        {
            "bufferView" : 6,
            "componentType" : 5126,
            "count" : 639,
            "type" : "VEC2"
        },
        {
            "bufferView" : 7,
            "componentType" : 5123,
            "count" : 2880,
            "type" : "SCALAR"
        },
        {
            "bufferView" : 8,
            "componentType" : 5126,
            "count" : 1259,
            "max" : [
                0.8983858823776245,
                0.844572901725769,
                0.8874731659889221
            ],
            "min" : [
                -0.8983858823776245,
                -0.8445728421211243,
                -0.8874731659889221
            ],
            "type" : "VEC3"
        },
        {
            "bufferView" : 9,
            "componentType" : 5126,
            "count" : 1259,
            "type" : "VEC3"
        },
        {
            "bufferView" : 10,
            "componentType" : 5126,
            "count" : 1259,
            "type" : "VEC2"
        },
        {
            "bufferView" : 11,
            "componentType" : 5123,
            "count" : 5760,
            "type" : "SCALAR"
        }
    ],
    "bufferViews" : [
        {
            "buffer" : 0,
            "byteLength" : 48,
            "byteOffset" : 0
        },
        {
            "buffer" : 0,
            "byteLength" : 48,
            "byteOffset" : 48
        },
        {
            "buffer" : 0,
            "byteLength" : 32,
            "byteOffset" : 96
        },
        {
            "buffer" : 0,
            "byteLength" : 12,
            "byteOffset" : 128
        },
        {
            "buffer" : 0,
            "byteLength" : 7668,
            "byteOffset" : 140
        },
        {
            "buffer" : 0,
            "byteLength" : 7668,
            "byteOffset" : 7808
        },
        {
            "buffer" : 0,
            "byteLength" : 5112,
            "byteOffset" : 15476
        },
        {
            "buffer" : 0,
            "byteLength" : 5760,
            "byteOffset" : 20588
        },
        {
            "buffer" : 0,
            "byteLength" : 15108,
            "byteOffset" : 26348
        },
        {
            "buffer" : 0,
            "byteLength" : 15108,
            "byteOffset" : 41456
        },
        {
            "buffer" : 0,
            "byteLength" : 10072,
            "byteOffset" : 56564
        },
        {
            "buffer" : 0,
            "byteLength" : 11520,
            "byteOffset" : 66636
        }
    ],
    "buffers" : [
        {
            "byteLength" : 78156,
            "uri" : "data:application/octet-stream;base64,"
        }
    ]
}
